<?xml version="1.0" encoding="utf-8"?>
<!-- Generator: Adobe Illustrator 27.5.0, SVG Export Plug-In . SVG Version: 6.00 Build 0)  -->
<svg version="1.1" xmlns="http://www.w3.org/2000/svg" xmlns:xlink="http://www.w3.org/1999/xlink" x="0px" y="0px"
	 viewBox="0 0 3710 3710" style="enable-background:new 0 0 3710 3710;" xml:space="preserve">
<g id="Background">
	<g>
		<g>
			<rect style="fill:#FFFFFF;" width="3710" height="3710"/>
		</g>
	</g>
</g>
<g id="Illustration">
	<g>
		<path style="fill:#F4F7FA;" d="M1878.019,521.623c-700.04-21.258-1306.422,501.103-1398.036,1186.506
			C379.817,2457.524,931.121,3131.8,1609.477,3239.795c843.761,134.329,1662.161-642.775,1588.677-1485.817
			C3142.791,1118.82,2589.623,543.232,1878.019,521.623z"/>
		<g>
			<g>
				<defs>
					<path id="SVGID_1_" d="M2164.952,2107.911l197.899,107.465c0,0,92.38-81.288,82.787-179.268
						c-19.572-199.908,156.879-203.098,230.585-215.49c111.154-18.688,200.955-83.633,107.024-184.145
						s117.845-215.672,301.707-219.982c179.922-4.217,276.246-326.482-114.011-353.11c-233.06-15.902-311.29,197.872-376.46,296.435
						c-65.17,98.563-223.671,23.575-239.64,178.54c-13.64,132.369,29.075,257.484-76.441,296.282
						C2172.886,1873.436,2120.956,1952.98,2164.952,2107.911z"/>
				</defs>
				<clipPath id="SVGID_00000080194923842600734890000017468265442448772003_">
					<use xlink:href="#SVGID_1_"  style="overflow:visible;"/>
				</clipPath>
				
					<linearGradient id="SVGID_00000176746240130765722500000010985841704372378262_" gradientUnits="userSpaceOnUse" x1="6624.5991" y1="-1.7097" x2="6176.2871" y2="1272.4409" gradientTransform="matrix(0.8788 0.4772 -0.4772 0.8788 -2681.8821 -2013.485)">
					<stop  offset="0.0036" style="stop-color:#E38DDD"/>
					<stop  offset="1" style="stop-color:#9571F6"/>
				</linearGradient>
				
					<path style="clip-path:url(#SVGID_00000080194923842600734890000017468265442448772003_);fill:url(#SVGID_00000176746240130765722500000010985841704372378262_);" d="
					M2164.952,2107.911l197.899,107.465c0,0,92.38-81.288,82.787-179.268c-19.572-199.908,156.879-203.098,230.585-215.49
					c111.154-18.688,188.358-78.898,122.339-181.001c-74.697-115.525,102.53-218.815,286.392-223.125
					c179.922-4.217,276.246-326.482-114.011-353.11c-233.06-15.902-311.29,197.872-376.46,296.435
					c-65.17,98.563-223.671,23.575-239.64,178.54c-13.64,132.369,29.075,257.484-76.441,296.282
					C2172.886,1873.436,2120.956,1952.98,2164.952,2107.911z"/>
				<g style="opacity:0.5;clip-path:url(#SVGID_00000080194923842600734890000017468265442448772003_);">
					<path style="fill:#BEB8F2;" d="M2240.629,2172.79l4.519,1.478c0.915-2.799,93.593-282.658,269.122-532.391
						c161.708-230.072,428.873-480.906,783.325-369.34l1.428-4.534c-157.785-49.665-311.682-32.889-457.417,49.86
						c-116.417,66.102-227.876,174.223-331.282,321.359C2334.41,1889.534,2241.548,2169.985,2240.629,2172.79z"/>
					<path style="fill:#BEB8F2;" d="M2782.2,1355.071l4.428,1.734c57.751-147.315,216.76-314.777,218.358-316.452l-3.436-3.285
						C2999.944,1038.75,2840.29,1206.892,2782.2,1355.071z"/>
					<path style="fill:#BEB8F2;" d="M2880.814,1302.597c188.221-11.253,296.789,102.144,297.862,103.291l3.469-3.249
						c-1.089-1.166-111.086-116.177-301.615-104.788L2880.814,1302.597z"/>
					<path style="fill:#BEB8F2;" d="M2408.41,1811.396c153.674-171.607,447.805-74.439,450.592-73.253l2.143-4.239
						c-2.624-1.423-301.237-98.811-456.276,74.32L2408.41,1811.396z"/>
					<path style="fill:#BEB8F2;" d="M2452.443,1727.231l4.555,1.37c42.373-140.755-47.559-302.274-48.473-303.89l-4.138,2.339
						C2405.291,1428.65,2494.229,1588.442,2452.443,1727.231z"/>
					<path style="fill:#BEB8F2;" d="M2260.7,2130.551c47.656-73.395,190.079-74.662,191.512-74.667l-0.014-4.752
						c-5.954,0.015-146.424,1.27-195.485,76.832L2260.7,2130.551z"/>
					<path style="fill:#BEB8F2;" d="M2281.756,2063.982l4.501,1.532c22.314-65.495-32.027-181.463-49.885-219.57
						c-2.523-5.386-4.701-10.034-4.927-10.939l-4.629,1.082c0.299,1.281,1.738,4.375,5.251,11.874
						C2249.723,1885.64,2303.452,2000.302,2281.756,2063.982z"/>
				</g>
			</g>
			<g>
				
					<linearGradient id="SVGID_00000016076968724100616920000006126253255773243822_" gradientUnits="userSpaceOnUse" x1="-2041.7216" y1="540.4647" x2="-1487.3445" y2="1997.1378" gradientTransform="matrix(-0.9977 0.0679 0.0679 0.9977 187.8619 17.6941)">
					<stop  offset="0.0036" style="stop-color:#E38DDD"/>
					<stop  offset="1" style="stop-color:#9571F6"/>
				</linearGradient>
				<path style="fill:url(#SVGID_00000016076968724100616920000006126253255773243822_);" d="M2119.447,1536.039
					c33.95,49.241,16.811,104.654-1.874,142.809c-5.701,0.72-8.799,2.588-14.37,4.583c-50.293,18.01-75.587,14.977-127.961,24.903
					c-11.274,2.136-46.27-1.656-60.47-4.124l-26.4-5.023c0,0-63.67-122.052,1.373-165.721c65.043-43.67,19.278-167.259,3.102-235.72
					c-9.933-42.041-1.008-64.449-2.178-80.482c-12.385-169.723-69.761-212.885-39.885-270.55
					c32.981-63.658,112.344-29.28,151.881-96.633c44.644-76.056-26.579-170.955,31.753-233.488
					c10-10.721,20.568-21.465,38.451-29.38c44.143-19.538,84.995,2.281,112.761-39.835
					c55.809-84.654,160.761-125.256,237.469-54.299c75.707,70.031,20.777,234.215-154.489,381.973
					c-112.662,119.291-110.042,150.624-88.702,225.125c14.946,52.183,90.04,183.765,20.616,248.287
					C2131.1,1412.985,2080.634,1479.748,2119.447,1536.039z"/>
				<g>
					<defs>
						<path id="SVGID_00000041280580833556747560000012903007049673713040_" d="M2090.175,1725.81l-196.87-22.503
							c0,0-68.603-126.172-3.56-169.842c65.043-43.67,19.278-167.259,3.103-235.721
							c-43.889-185.754,177.353-195.048,141.515-437.777c-9.532-64.558-50.987-184.891,0.055-243.376
							c58.151-66.631,115.504-15.053,151.211-69.215c55.809-84.654,160.761-125.255,237.469-54.299
							c75.707,70.031,20.777,234.215-154.488,381.973c-112.663,119.292-110.042,150.625-88.703,225.125
							c14.947,52.184,90.039,183.766,20.616,248.287c-69.423,64.521-119.888,131.284-81.077,187.575
							C2178.503,1621.694,2090.175,1725.81,2090.175,1725.81z"/>
					</defs>
					<clipPath id="SVGID_00000147926633262763686190000005891154357956762020_">
						<use xlink:href="#SVGID_00000041280580833556747560000012903007049673713040_"  style="overflow:visible;"/>
					</clipPath>
					<g style="opacity:0.5;clip-path:url(#SVGID_00000147926633262763686190000005891154357956762020_);">
						<path style="fill:#FCFDFE;" d="M2003.08,1706.989l-3.928,0.018c-0.304-21.686-0.321-43.558-0.052-65.009
							c2.006-158.821,19.943-311.605,53.319-454.111c28.281-120.749,68.015-235.826,118.097-342.032
							c40.276-85.411,87.434-165.575,140.164-238.267c37.069-51.1,76.487-98.008,117.162-139.418
							c7.087-7.218,14.774-14.228,22.208-21.009c9.905-9.033,20.147-18.374,29.047-28.278l3.026,2.342
							c-9.022,10.04-19.333,19.444-29.304,28.539c-7.397,6.746-15.046,13.723-22.061,20.867
							c-40.547,41.28-79.848,88.047-116.812,139.004c-52.6,72.51-99.644,152.485-139.828,237.699
							c-49.979,105.988-89.633,220.835-117.86,341.351c-33.32,142.265-51.228,294.806-53.229,453.381
							C2002.759,1663.49,2002.776,1685.331,2003.08,1706.989z"/>
						<path style="fill:#FCFDFE;" d="M2118.979,978.908l-3.752-1.107c50.108-148.801-50.725-400.407-51.75-402.93l3.677-1.259
							C2068.183,576.147,2169.488,828.915,2118.979,978.908z"/>
						<path style="fill:#FCFDFE;" d="M2018.295,1406.831l-3.862-0.697c21.25-104.908,212.69-206.98,214.621-207.999l1.965,3.168
							C2229.104,1202.313,2039.212,1303.562,2018.295,1406.831z"/>
						<path style="fill:#FCFDFE;" d="M2011.802,1467.362l-3.929-0.057c0.56-69.769-38.92-165.484-111.167-269.508
							c-3.633-5.231-3.633-5.231-3.637-5.922l3.93,0.011l-1.965-0.005l1.811-0.674c0.199,0.374,1.57,2.349,3.161,4.637
							C1972.664,1300.463,2012.368,1396.888,2011.802,1467.362z"/>
						<path style="fill:#FCFDFE;" d="M2003.129,1667.41l-3.755-1.094c24.331-73.297,138.568-114.833,139.718-115.244l1.439,3.397
							C2139.398,1554.875,2026.904,1595.792,2003.129,1667.41z"/>
						<path style="fill:#FCFDFE;" d="M1997.238,1707.979c-23.578-58.166-65.902-112.093-129.392-164.861l2.612-2.702
							c63.976,53.175,106.648,107.575,130.456,166.307L1997.238,1707.979z"/>
						<path style="fill:#FCFDFE;" d="M2283.653,652.925l-3.679-1.3c32.849-81.257,46.966-173.824,51.605-204.242
							c1.123-7.363,1.528-9.954,1.838-10.832l3.734,1.157c-0.228,0.674-0.869,4.883-1.681,10.212
							C2330.815,478.436,2316.652,571.297,2283.653,652.925z"/>
						<path style="fill:#FCFDFE;" d="M2209.086,777.572l-3.112-2.244c53.732-64.241,228.452-83.446,235.864-84.233l0.476,3.617
							C2440.516,694.903,2261.815,714.531,2209.086,777.572z"/>
					</g>
				</g>
			</g>
			<g>
				
					<linearGradient id="SVGID_00000065759148500747362680000017840047944598750091_" gradientUnits="userSpaceOnUse" x1="3251.1472" y1="47.403" x2="4146.6714" y2="1521.6665" gradientTransform="matrix(-0.9993 -0.0372 -0.0372 0.9993 6084.1631 616.9177)">
					<stop  offset="0" style="stop-color:#FF9085"/>
					<stop  offset="1" style="stop-color:#FB6FBB"/>
				</linearGradient>
				<path style="fill:url(#SVGID_00000065759148500747362680000017840047944598750091_);" d="M2175.788,2155.302
					c-16.086-2.632,5.967-85.34-37.191-193.792c-10.782-27.095-131.993,8.66-178.908-187.522
					c-5.412-22.631-46.421-3.328-69.631-4.991c-18.114-52.927-25.38-106.166,45.856-123.619
					c110.629-27.103,117.32-209.87,88.604-275.657c-35.541-81.424-114.212-272.557,56.072-317.015
					c141.761-37.013,241.746-33.346,255.382-204.463c13.636-171.119,114.965-274.504,279.187-258.331
					c172.819,17.021,319.522-195.663,459.696-117.648c244.243,135.941,12.115,505.695-290.736,604.251
					c-302.849,98.557-132.762,207.198-127.747,347.821c-0.274,13.08-1.708,33.338-7.939,56.928
					c-38.365,145.228-192.127,164.942-305.773,280.888C2187.669,1920.276,2202.888,2159.736,2175.788,2155.302z"/>
				<g>
					<defs>
						<path id="SVGID_00000047766825218398176170000010432721943468968113_" d="M2279.004,1827.121l-377.011-16.504
							c-20.431-51.424-45.651-145.744,33.922-165.239c110.63-27.104,117.32-209.87,88.604-275.657
							c-35.541-81.424-114.212-272.557,56.072-317.016c141.76-37.012,241.745-33.345,255.381-204.463
							c13.637-171.118,114.966-274.504,279.188-258.329c172.818,17.021,319.521-195.665,459.695-117.648
							c244.244,135.94,12.115,505.692-290.735,604.25c-302.85,98.557-132.764,207.198-127.748,347.822
							c6.848,191.982-266.13,141.097-340.13,213.731C2258.229,1695.008,2266.959,1776.807,2279.004,1827.121z"/>
					</defs>
					<clipPath id="SVGID_00000034786722771217804380000009352729905247879587_">
						<use xlink:href="#SVGID_00000047766825218398176170000010432721943468968113_"  style="overflow:visible;"/>
					</clipPath>
					<g style="opacity:0.5;clip-path:url(#SVGID_00000034786722771217804380000009352729905247879587_);">
						<path style="fill:#FCFDFE;" d="M2103.187,1763.277l-7.972-1.841c132.174-549.061,546.51-1030.041,1081.318-1255.238
							l3.431,7.074C2647.41,737.521,2234.812,1216.496,2103.187,1763.277z"/>
						<path style="fill:#FCFDFE;" d="M2202.463,1470.219l-8.171-0.322c5.699-221.987-190.83-402.984-192.817-404.787l5.604-5.536
							C2009.092,1061.398,2208.25,1244.733,2202.463,1470.219z"/>
						<path style="fill:#FCFDFE;" d="M2130.424,1662.948l-7.097-3.953c118.092-193.592,551.251-204.497,555.613-204.583l0.317,7.732
							C2674.943,1462.23,2246.271,1473.037,2130.424,1662.948z"/>
						<path style="fill:#FCFDFE;" d="M2504.991,1000.852l-7.42-3.369c79.342-160.814-27.241-417.327-28.326-419.899l7.58-2.762
							C2477.926,577.425,2585.8,837.068,2504.991,1000.852z"/>
						<path style="fill:#FCFDFE;" d="M2772.307,750.495l-4.112-6.753c186.018-99.263,468.384-29.171,471.219-28.447l-1.99,7.467
							C3234.625,722.044,2955.425,652.776,2772.307,750.495z"/>
					</g>
				</g>
			</g>
		</g>
		<g>
			
				<linearGradient id="SVGID_00000176729917869911623880000001135667649217018252_" gradientUnits="userSpaceOnUse" x1="1874.595" y1="1648.3623" x2="1934.4128" y2="757.7511">
				<stop  offset="0" style="stop-color:#444B8C"/>
				<stop  offset="0.9964" style="stop-color:#26264F"/>
			</linearGradient>
			<path style="fill:url(#SVGID_00000176729917869911623880000001135667649217018252_);" d="M1846.388,831.945
				c0,0,137.839,46.497,152.49,286.837c-22.539-1.879-75.091,0-75.091,0s9.732-174.783-88.317-208.739
				C1843.359,889.67,1846.388,831.945,1846.388,831.945z"/>
			
				<linearGradient id="SVGID_00000006697256105107738500000005986045220108209564_" gradientUnits="userSpaceOnUse" x1="1575.1244" y1="1335.5858" x2="1616.8535" y2="714.2932">
				<stop  offset="0.1" style="stop-color:#311944"/>
				<stop  offset="0.267" style="stop-color:#371B47"/>
				<stop  offset="0.4803" style="stop-color:#462150"/>
				<stop  offset="0.7186" style="stop-color:#612A5F"/>
				<stop  offset="0.9736" style="stop-color:#853774"/>
				<stop  offset="1" style="stop-color:#893976"/>
			</linearGradient>
			<path style="fill:url(#SVGID_00000006697256105107738500000005986045220108209564_);" d="M1340.646,817.515
				c3.437,43.758,6.872,87.515,10.309,131.273c68.118-19.651,142.611-42.45,222.693-46.64
				c104.123-5.448,199.557,6.682,284.553,27.769c3.779-5.525,11.789-18.81,15.483-40.445c5.951-34.861-4.015-63.795-5.862-68.95
				c-43.297-16.066-90.248-29.536-140.557-38.709C1583.005,755.514,1452.648,781.604,1340.646,817.515z"/>
			
				<linearGradient id="SVGID_00000152253035213980111580000011948534249250258837_" gradientUnits="userSpaceOnUse" x1="1360.358" y1="890.5118" x2="1821.8328" y2="1137.9224">
				<stop  offset="0.1" style="stop-color:#311944"/>
				<stop  offset="0.267" style="stop-color:#371B47"/>
				<stop  offset="0.4803" style="stop-color:#462150"/>
				<stop  offset="0.7186" style="stop-color:#612A5F"/>
				<stop  offset="0.9736" style="stop-color:#853774"/>
				<stop  offset="1" style="stop-color:#893976"/>
			</linearGradient>
			<path style="fill:url(#SVGID_00000152253035213980111580000011948534249250258837_);" d="M1334.227,855.429
				c0.202-15.828,1.341-35.591,6.419-37.914c4.782-2.188,11.212,12.122,13.977,20.074c1.152,3.31,3.689,11.331,5.276,36.869
				c2.046,32.924-0.339,49.063-2.523,59.03c-1.313,5.992-3.364,15.072-6.42,15.3c-2.453,0.183-4.585-5.549-7.761-16.648
				C1338.916,917.191,1333.757,892.251,1334.227,855.429z"/>
			
				<linearGradient id="SVGID_00000148639461925633216520000004672481840698273431_" gradientUnits="userSpaceOnUse" x1="1229.8082" y1="1753.5638" x2="1297.6317" y2="743.761">
				<stop  offset="0" style="stop-color:#444B8C"/>
				<stop  offset="0.9964" style="stop-color:#26264F"/>
			</linearGradient>
			<path style="fill:url(#SVGID_00000148639461925633216520000004672481840698273431_);" d="M1208.682,1131.935
				c28.558,5.66,97.998,22.592,97.998,22.592s-45.275-153.721,40.09-224.675c2.211-11.613,4.455-30.048,1.758-52.207
				c-2.087-17.142-6.441-30.836-10.199-40.323C1302.088,858.986,1223.196,931.866,1208.682,1131.935z"/>
			
				<linearGradient id="SVGID_00000096765446833348934320000010417534670120064696_" gradientUnits="userSpaceOnUse" x1="743.9506" y1="1668.1196" x2="482.3771" y2="-722.9126">
				<stop  offset="0.1" style="stop-color:#311944"/>
				<stop  offset="0.6853" style="stop-color:#6D2F66"/>
				<stop  offset="1" style="stop-color:#893976"/>
			</linearGradient>
			<path style="fill:url(#SVGID_00000096765446833348934320000010417534670120064696_);" d="M618.019,1172.433
				c0,0,3.495-80.725,122.593-80.725c18.755,14.714,19.693,80.725,19.693,80.725H618.019z"/>
			
				<linearGradient id="SVGID_00000086666643110084643660000012735789352784481465_" gradientUnits="userSpaceOnUse" x1="1862.8276" y1="2696.8879" x2="134.3898" y2="1734.4606">
				<stop  offset="0" style="stop-color:#311944"/>
				<stop  offset="1" style="stop-color:#893976"/>
			</linearGradient>
			<path style="fill:url(#SVGID_00000086666643110084643660000012735789352784481465_);" d="M537.992,2871.062l300.21,101.099
				l197.484-781.365L710.287,1143.263l-92.269,29.17L503.742,2788.541C500.573,2822.595,514.259,2855.569,537.992,2871.062z"/>
			
				<linearGradient id="SVGID_00000017496661199349654940000007055961899393538432_" gradientUnits="userSpaceOnUse" x1="316.2684" y1="1324.4456" x2="841.819" y2="2205.7537">
				<stop  offset="0" style="stop-color:#311944"/>
				<stop  offset="1" style="stop-color:#893976"/>
			</linearGradient>
			<path style="opacity:0.3;fill:url(#SVGID_00000017496661199349654940000007055961899393538432_);" d="M1035.686,2190.795
				L710.287,1143.263l-92.269,29.17c22.719,92.451,33.613,243.007,38.74,326.817c21.814,356.652,94.26,455.9,59.165,704.707
				c-29.181,206.88-92.907,234.959-87.338,374.147c6.068,151.591,88.071,278.534,185.567,378.359l24.05,15.697L1035.686,2190.795z"
				/>
			
				<linearGradient id="SVGID_00000117678760352696180710000003882445593367577764_" gradientUnits="userSpaceOnUse" x1="1614.7009" y1="267.5208" x2="1807.3788" y2="2853.4746">
				<stop  offset="0.1" style="stop-color:#311944"/>
				<stop  offset="0.6853" style="stop-color:#6D2F66"/>
				<stop  offset="1" style="stop-color:#893976"/>
			</linearGradient>
			<polygon style="fill:url(#SVGID_00000117678760352696180710000003882445593367577764_);" points="710.287,1143.263 
				2499.936,1143.265 2781.691,2803.708 838.202,2972.161 			"/>
			<g style="opacity:0.2;">
				
					<linearGradient id="SVGID_00000061453703637553430250000015070632178297055121_" gradientUnits="userSpaceOnUse" x1="1291.5829" y1="1734.9962" x2="2690.5044" y2="2812.8555">
					<stop  offset="0" style="stop-color:#311944"/>
					<stop  offset="1" style="stop-color:#893976"/>
				</linearGradient>
				<path style="fill:url(#SVGID_00000061453703637553430250000015070632178297055121_);" d="M2499.937,1143.263h-602.896
					c-11.103,34.021-28.076,81.095-52.851,134.355c-269.622,579.594-886.849,652.628-875.699,747.879
					c16.668,142.373,1391.134-59.711,1426.228,135.921c16.94,94.439-273.304,309.113-576.598,390.397
					c-363.142,97.322-630.001-25.335-807.487,193.336c-60.096,74.041-86.624,160.778-99.548,219.437L2781.69,2803.71
					L2499.937,1143.263z"/>
			</g>
			
				<linearGradient id="SVGID_00000041260775796216603100000000616952106752936612_" gradientUnits="userSpaceOnUse" x1="944.4331" y1="1579.7133" x2="1517.443" y2="1557.4604">
				<stop  offset="0.1" style="stop-color:#311944"/>
				<stop  offset="0.6853" style="stop-color:#6D2F66"/>
				<stop  offset="1" style="stop-color:#893976"/>
			</linearGradient>
			<path style="fill:url(#SVGID_00000041260775796216603100000000616952106752936612_);" d="M740.611,1091.708
				c-20.162,0-48.35-2.708-79.008,16.695c-6.545,4.142-12.325,8.701-17.396,13.331l14.113-5.408
				c22.704-7.177,54.012,2.375,65.703,26.937c14.369,30.187,19.541,100.036,22.682,134.637
				c8.936,98.423,63.861,710.813,63.861,710.813c4.115,51.634,40.473,90.737,83.443,89.741l1664.734-93.366
				c12.643-0.293,25.136-4.544,35.567-13.167c21.764-17.991,31.596-49.201,26.55-78.852l-84.337-729.353
				c-7.133-41.92-37.703-72.008-73.16-72.008H740.611z"/>
			
				<linearGradient id="SVGID_00000083798204370081426600000017557035772400774280_" gradientUnits="userSpaceOnUse" x1="1844.139" y1="3587.1621" x2="1636.6835" y2="1255.7745">
				<stop  offset="0.1" style="stop-color:#311944"/>
				<stop  offset="0.267" style="stop-color:#371B47"/>
				<stop  offset="0.4803" style="stop-color:#462150"/>
				<stop  offset="0.7186" style="stop-color:#612A5F"/>
				<stop  offset="0.9736" style="stop-color:#853774"/>
				<stop  offset="1" style="stop-color:#893976"/>
			</linearGradient>
			<path style="fill:url(#SVGID_00000083798204370081426600000017557035772400774280_);" d="M758.429,1091.708
				c-20.162,0-44.076-2.971-70.728,4.744c-7.187,2.08-18.686,5.894-23.757,10.525c0,0,56.506-14.561,77.899,36.286
				c13.06,31.041,19.541,100.036,22.682,134.637c8.936,98.423,63.861,710.813,63.861,710.813
				c4.115,51.634,40.473,90.737,83.443,89.741l1683.489-39.037c12.642-0.293,25.136-4.544,35.567-13.167
				c21.765-17.992,31.596-49.201,26.55-78.852l-103.093-783.682c-7.133-41.92-37.703-72.008-73.16-72.008H758.429z"/>
			
				<linearGradient id="SVGID_00000087376251238302920080000017039446548425204353_" gradientUnits="userSpaceOnUse" x1="1944.8877" y1="4124.2949" x2="1593.532" y2="912.5665">
				<stop  offset="0" style="stop-color:#311944"/>
				<stop  offset="1" style="stop-color:#893976"/>
			</linearGradient>
			<path style="opacity:0.1;fill:url(#SVGID_00000087376251238302920080000017039446548425204353_);" d="M2657.435,1947.398
				l-103.092-783.681c-7.133-41.92-37.704-72.008-73.161-72.008H758.429c-20.162,0-44.075-2.972-70.73,4.744
				c-7.186,2.08-18.686,5.894-23.757,10.525c0,0,56.506-14.561,77.9,36.286c2.058,4.892,3.935,10.804,5.678,17.298
				c163.607,6.981,327.213,1.957,490.818,13.349c323.418,21.93,650.468,21.93,955.716,162.281
				c97.639,44.895,164.577,206.187,138.088,280.702c-19.1,53.727-84.279,49.471-107.025,119.978
				c-23.92,74.151,33.436,124.534,9.378,176.57c-25.216,54.54-101.797,28.557-225.771,67.488
				c-68.305,21.45-120.697,53.091-153.418,75.647l740.011-17.16c12.642-0.293,25.136-4.544,35.567-13.167
				C2652.65,2008.259,2662.481,1977.048,2657.435,1947.398z"/>
			<g>
				
					<linearGradient id="SVGID_00000103237018743478403580000006579462130423408016_" gradientUnits="userSpaceOnUse" x1="2407.9202" y1="2426.4702" x2="1367.3157" y2="1882.5176">
					<stop  offset="0" style="stop-color:#FFC444"/>
					<stop  offset="0.9964" style="stop-color:#F36F56"/>
				</linearGradient>
				<path style="fill:url(#SVGID_00000103237018743478403580000006579462130423408016_);" d="M1851.774,2185.316l-210.809,54.492
					l-22.264,1.957c-22.432,1.972-41.738-18.848-42.717-46.282l-9.251-259.355c-0.979-27.435,16.773-50.18,39.263-50.542
					l22.378-0.36l211.913,28.95c20.244-0.327,37.296-11.901,38.214,13.827l8.676,243.233
					C1888.094,2196.966,1871.966,2183.542,1851.774,2185.316z"/>
				
					<linearGradient id="SVGID_00000015313869420989514370000002530502633757933448_" gradientUnits="userSpaceOnUse" x1="1476.1238" y1="1966.2083" x2="2534.0251" y2="2344.771">
					<stop  offset="0" style="stop-color:#FFC444"/>
					<stop  offset="0.9964" style="stop-color:#F36F56"/>
				</linearGradient>
				<path style="fill:url(#SVGID_00000015313869420989514370000002530502633757933448_);" d="M1867.802,2221.233l-233.559,20.532
					c-22.432,1.972-41.738-18.848-42.716-46.282l-9.252-259.355c-0.979-27.435,16.773-50.18,39.263-50.542l234.156-3.772
					c20.245-0.326,37.431,20.46,38.349,46.189l8.677,243.233C1903.637,2196.966,1887.995,2219.458,1867.802,2221.233z"/>
			</g>
		</g>
		<g>
			<g>
				<g>
					
						<linearGradient id="SVGID_00000129887269612792794980000007894874308706493329_" gradientUnits="userSpaceOnUse" x1="936.3279" y1="3010.9612" x2="2368.3157" y2="1937.958">
						<stop  offset="0" style="stop-color:#AB316D"/>
						<stop  offset="1" style="stop-color:#792D3D"/>
					</linearGradient>
					<path style="fill:url(#SVGID_00000129887269612792794980000007894874308706493329_);" d="M2308.082,1132.681l-24.478-25.671
						l-30.086,160.247l-188.761,422.455l20.991,25.67l130.428-0.061v590.223c0,386.491-285.342,707.897-655.037,737.825
						l-1004.483,57.985l1.889,18.884l416.119,124.107l737.08-67.032c420.417-37.903,743.178-404.669,743.178-844.505v-621.604
						l117.602-7.073L2308.082,1132.681z"/>
				</g>
				<g>
					
						<linearGradient id="SVGID_00000041997641525940876140000006345551215118030737_" gradientUnits="userSpaceOnUse" x1="1678.3975" y1="1799.1718" x2="1375.3691" y2="3345.134">
						<stop  offset="0" style="stop-color:#FCB148"/>
						<stop  offset="0.0521" style="stop-color:#FDBA46"/>
						<stop  offset="0.1424" style="stop-color:#FFC244"/>
						<stop  offset="0.3183" style="stop-color:#FFC444"/>
						<stop  offset="0.4849" style="stop-color:#FDB946"/>
						<stop  offset="0.7754" style="stop-color:#F99C4D"/>
						<stop  offset="0.8658" style="stop-color:#F8924F"/>
						<stop  offset="1" style="stop-color:#F8924F"/>
					</linearGradient>
					<path style="fill:url(#SVGID_00000041997641525940876140000006345551215118030737_);" d="M2283.604,1107.01l-218.847,582.702
						l128.382-0.062v590.223c0,386.49-280.867,707.897-644.763,737.825l-991.72,83.656l420.436,116.058l719.528-65.77
						c413.823-37.903,731.522-404.67,731.522-844.504v-621.605l115.758-7.074L2283.604,1107.01z"/>
				</g>
				<g style="opacity:0.3;">
					<path style="fill:#F4F7FA;" d="M2363.161,2339.528c-34.002-158.375-114.308-232.447-110.915-424.445
						c2.661-150.538,54.054-219.504,85.151-340.216c21.05-81.709,32.904-187.578,12.868-321.511l-66.66-146.347l-218.847,582.703
						l128.382-0.062v590.223c0,386.491-280.867,707.896-644.763,737.825l-991.72,83.656l420.435,116.057l719.529-65.771
						c297.756-27.271,545.74-224.808,661.426-497.312C2380.457,2552.746,2385.767,2444.825,2363.161,2339.528z"/>
				</g>
			</g>
			<g>
				<g>
					
						<linearGradient id="SVGID_00000002362092065099000400000010429161264248438933_" gradientUnits="userSpaceOnUse" x1="2354.9512" y1="4359.9019" x2="2006.5527" y2="3747.8516">
						<stop  offset="0" style="stop-color:#AB316D"/>
						<stop  offset="1" style="stop-color:#792D3D"/>
					</linearGradient>
					<polygon style="fill:url(#SVGID_00000002362092065099000400000010429161264248438933_);" points="556.656,3128.735 
						977.091,3244.792 2725.572,3082.995 2458.351,2968.309 					"/>
					
						<linearGradient id="SVGID_00000163770540642956772430000012894795953349021849_" gradientUnits="userSpaceOnUse" x1="3313.0864" y1="3864.0488" x2="2943.9746" y2="3215.6101">
						<stop  offset="0" style="stop-color:#AB316D"/>
						<stop  offset="1" style="stop-color:#792D3D"/>
					</linearGradient>
					<polygon style="fill:url(#SVGID_00000163770540642956772430000012894795953349021849_);" points="2377.709,2940.929 
						2768.422,3106.551 3197.526,2968.309 3197.526,2940.929 2856.039,2968.309 2377.709,2913.549 					"/>
				</g>
				<g>
					
						<linearGradient id="SVGID_00000112594428254792230960000005704450141466573230_" gradientUnits="userSpaceOnUse" x1="2354.9512" y1="4332.5215" x2="2006.5527" y2="3720.4714">
						<stop  offset="0" style="stop-color:#FF9085"/>
						<stop  offset="1" style="stop-color:#FB6FBB"/>
					</linearGradient>
					<polygon style="fill:url(#SVGID_00000112594428254792230960000005704450141466573230_);" points="556.656,3101.355 
						977.091,3217.412 2725.572,3055.615 2458.351,2940.929 					"/>
					
						<linearGradient id="SVGID_00000098935661989424757280000015157001368921010099_" gradientUnits="userSpaceOnUse" x1="3285.4939" y1="3801.8855" x2="2935.7642" y2="3187.4963">
						<stop  offset="0" style="stop-color:#FF9085"/>
						<stop  offset="1" style="stop-color:#FB6FBB"/>
					</linearGradient>
					<polygon style="fill:url(#SVGID_00000098935661989424757280000015157001368921010099_);" points="2377.709,2913.549 
						2768.422,3079.171 3197.526,2940.929 					"/>
				</g>
			</g>
		</g>
		<g>
			
				<linearGradient id="SVGID_00000127749345478006987220000014822319529830023577_" gradientUnits="userSpaceOnUse" x1="1090.3605" y1="3059.426" x2="1097.7365" y2="3190.7178">
				<stop  offset="0.0036" style="stop-color:#26264F"/>
				<stop  offset="1" style="stop-color:#444B8C"/>
			</linearGradient>
			<path style="fill:url(#SVGID_00000127749345478006987220000014822319529830023577_);" d="M1058.632,3085.519
				c0,0-8.262,18.911-7.944,22.132c0.003,0.032,0.007,0.064,0.009,0.098c0.611,6.461,5.703,11.357,11.736,11.019
				c17.531-0.984,51.037-3.493,68.504-8.917c24.34-7.559-59.237-27.142-59.237-27.142L1058.632,3085.519z"/>
			
				<linearGradient id="SVGID_00000096748148717117486820000018263817589715387565_" gradientUnits="userSpaceOnUse" x1="1082.1188" y1="3152.4226" x2="1058.5157" y2="2960.6479">
				<stop  offset="0" style="stop-color:#FFC444"/>
				<stop  offset="0.9964" style="stop-color:#F36F56"/>
			</linearGradient>
			<path style="fill:url(#SVGID_00000096748148717117486820000018263817589715387565_);" d="M1059.167,3057.519l1.347,32.04
				c0,0,4.868,7.731,16.834-2.096l6.452-34.056L1059.167,3057.519z"/>
			
				<linearGradient id="SVGID_00000161624641995264115350000009603226927100939152_" gradientUnits="userSpaceOnUse" x1="1023.7646" y1="2755.7036" x2="1281.9886" y2="2755.7036">
				<stop  offset="0.0036" style="stop-color:#E38DDD"/>
				<stop  offset="1" style="stop-color:#9571F6"/>
			</linearGradient>
			<path style="fill:url(#SVGID_00000161624641995264115350000009603226927100939152_);" d="M1119.924,2461.459
				c-19.466,10.762-31.148,25.398-35.773,31.722c-37.152,50.806-14.356,105.984-16.227,193.494
				c-2.595,121.42-49.084,137.084-43.73,252.156c2.515,54.049,14.96,97.635,24.921,125.719c15.007-1.993,30.014-3.983,45.021-5.976
				c6.924-74.55,25.318-189.897,82.077-315.853c59.325-131.652,126.5-199.302,99.713-250.335
				C1253.773,2450.182,1173.82,2431.67,1119.924,2461.459z"/>
			
				<linearGradient id="SVGID_00000133505622920403233680000010154093706379970477_" gradientUnits="userSpaceOnUse" x1="1023.7646" y1="2755.7043" x2="1281.9899" y2="2755.7043">
				<stop  offset="0.0036" style="stop-color:#E38DDD"/>
				<stop  offset="1" style="stop-color:#9571F6"/>
			</linearGradient>
			<path style="opacity:0.3;fill:url(#SVGID_00000133505622920403233680000010154093706379970477_);" d="M1275.926,2492.386
				c-22.153-42.203-102.105-60.718-156.002-30.927c-1.991,1.102-3.847,2.264-5.677,3.431c39.182,66.57,39.88,112.221,31.124,143.101
				c-8.96,31.601-27.684,47.294-32.085,92.937c-4.896,50.786,15.58,59.395,7.745,100.682
				c-9.858,51.953-44.666,50.889-54.213,101.788c-9.072,48.366,18.166,71.66,1.106,102.895
				c-6.564,12.019-17.095,20.425-28.799,26.406c3.312,12.11,6.779,22.797,9.99,31.852c15.007-1.997,30.014-3.985,45.021-5.977
				c6.924-74.552,25.318-189.898,82.077-315.854C1235.538,2611.069,1302.713,2543.418,1275.926,2492.386z"/>
			
				<linearGradient id="SVGID_00000146483244653880883350000011891437156919458231_" gradientUnits="userSpaceOnUse" x1="1342.2631" y1="3044.4312" x2="1349.639" y2="3175.7231">
				<stop  offset="0.0036" style="stop-color:#26264F"/>
				<stop  offset="1" style="stop-color:#444B8C"/>
			</linearGradient>
			<path style="fill:url(#SVGID_00000146483244653880883350000011891437156919458231_);" d="M1312.081,3098.05
				c0,0-8.262,18.911-7.944,22.132c0.004,0.032,0.007,0.065,0.01,0.099c0.611,6.461,5.703,11.357,11.735,11.019
				c17.531-0.984,51.037-3.493,68.505-8.917c24.34-7.559-59.237-27.142-59.237-27.142L1312.081,3098.05z"/>
			
				<linearGradient id="SVGID_00000057139640262718865010000002460435248787295157_" gradientUnits="userSpaceOnUse" x1="1324.4294" y1="3122.6003" x2="1300.8263" y2="2930.8254">
				<stop  offset="0" style="stop-color:#FFC444"/>
				<stop  offset="0.9964" style="stop-color:#F36F56"/>
			</linearGradient>
			<path style="fill:url(#SVGID_00000057139640262718865010000002460435248787295157_);" d="M1305.411,3070.204l8.133,32.753
				c0,0,4.868,7.731,16.834-2.096l-0.334-34.769L1305.411,3070.204z"/>
			
				<linearGradient id="SVGID_00000117668111494641216220000002472861442423287959_" gradientUnits="userSpaceOnUse" x1="1178.4265" y1="2750.4832" x2="1361.9038" y2="2750.4832">
				<stop  offset="0.0036" style="stop-color:#E38DDD"/>
				<stop  offset="1" style="stop-color:#9571F6"/>
			</linearGradient>
			<path style="fill:url(#SVGID_00000117668111494641216220000002472861442423287959_);" d="M1191.84,2480.492
				c-36.084,37.224,9.499,168.718,32.947,236.359c2.168,6.249,7.974,22.517,11.474,45.243c4.891,31.755,2.005,54.862,0.792,72.715
				c0,0-3.119,45.899,7.976,111.002c5.379,31.56,18.216,79.36,53.024,134.203c13.646-2.379,27.291-4.758,40.936-7.137
				c0.498-59.137,2.073-155.475,7.745-274.781c9.275-195.088,25.773-373.098,5.532-377.081c-6.662-1.31-8.26,18.01-28.766,35.686
				C1276.476,2497.233,1219.388,2452.073,1191.84,2480.492z"/>
			
				<linearGradient id="SVGID_00000078002873809071195960000015229932450175541943_" gradientUnits="userSpaceOnUse" x1="878.0366" y1="2179.8452" x2="1225.8888" y2="2179.8452">
				<stop  offset="0" style="stop-color:#FB6FBB"/>
				<stop  offset="1" style="stop-color:#FF9085"/>
			</linearGradient>
			<path style="fill:url(#SVGID_00000078002873809071195960000015229932450175541943_);" d="M1225.889,2017.972
				c-46.402,2.767-201.501,16.931-292.228,119.432c-21.46,24.245-74.121,83.739-48.96,135.904
				c24.252,50.279,114.427,80.537,221.363,63.754c7.199-9.108,14.397-18.215,21.596-27.323
				c-59.093-6.035-100.009-33.731-102.582-62.615c-2.25-25.246,25.317-45.583,39.143-55.785
				c47.123-34.762,106.522-34.06,126.878-33.015C1202.695,2111.539,1214.292,2064.756,1225.889,2017.972z"/>
			<path style="fill:#FFFFFF;" d="M1627.783,1736.423c16.619,25.855,15.413,56.248-2.693,67.886
				c-18.105,11.638-46.255,0.112-62.873-25.743c-16.619-25.855-15.413-56.248,2.693-67.886
				C1583.015,1699.043,1611.164,1710.568,1627.783,1736.423z"/>
			<path style="fill:#D8DEE8;" d="M1378.918,1916.537l180.401-184.828c2.349-2.407,5.686-3.566,9.014-3.086
				c14.396,2.073,52.304,12.043,53.919,59.601c0.134,3.952-1.938,7.686-5.38,9.632l-226.705,128.157L1378.918,1916.537z"/>
			<path style="fill:#FFFFFF;" d="M1391.148,1916.686c3.246,5.05,3.01,10.986-0.526,13.259c-3.536,2.273-9.034,0.022-12.281-5.028
				s-3.01-10.987,0.526-13.26C1382.404,1909.385,1387.902,1911.636,1391.148,1916.686z"/>
			
				<linearGradient id="SVGID_00000116922533648709497170000004830379338191317934_" gradientUnits="userSpaceOnUse" x1="1514.3726" y1="1845.6122" x2="1560.252" y2="1845.6122">
				<stop  offset="0" style="stop-color:#FFC444"/>
				<stop  offset="0.9964" style="stop-color:#F36F56"/>
			</linearGradient>
			<path style="fill:url(#SVGID_00000116922533648709497170000004830379338191317934_);" d="M1546.607,1880.121l-32.235-24.321
				c0,0,16.048-4.758,10.334-28.535c-5.715-23.776,9.851-19.198,10.364,0c0.512,19.199,5.517,32.377,5.517,32.377l19.665,14.168
				L1546.607,1880.121z"/>
			<g>
				
					<linearGradient id="SVGID_00000145774053839135510200000017243852684799538096_" gradientUnits="userSpaceOnUse" x1="-1685.0416" y1="1780.7886" x2="-1499.9902" y2="2013.6068" gradientTransform="matrix(-0.9998 0.0235 0.0235 0.9998 -333.5531 171.7463)">
					<stop  offset="0" style="stop-color:#FFC444"/>
					<stop  offset="0.9964" style="stop-color:#F36F56"/>
				</linearGradient>
				<path style="fill:url(#SVGID_00000145774053839135510200000017243852684799538096_);" d="M1360.42,1972.512
					c7.136-12.741,3.488-27.016,2.668-30.102c-3.431-12.909-4.64-14.854-7.115-17.547l-3.493-3.523c0,0-0.215-0.151-0.443-0.302
					c-2.409-1.573-11.32-4.015-13.232-4.067c-6.111-0.16-18.015,22.016-24.334,55.903c-0.549,1.219-1.092,2.45-1.63,3.691
					c-0.999,2.303-1.694,4.006-1.747,4.136c-1.104,2.675-7.544,12.598-14.556,18.575c-16.171,13.787-53.417,21.977-53.107,28.031
					c0.287,5.623,32.958,9.487,65.275,8.786c22.833-0.497,61.641-3.622,62.328-11.738c0.686-8.104-38.201-11.802-33.628-38.879
					C1337.86,1982.795,1355.163,1981.899,1360.42,1972.512z"/>
				<path style="fill:#26264F;" d="M1366.819,1914.744c-2.538,10.36-10.099,20.252-13.017,21.43
					c-0.376,0.153-2.531,1.145-4.746,3.195c-0.302,0.279-0.591,0.621-0.886,1.083c-3.849,5.984,4.681,16.183,1.97,18.624
					c-1.968,1.771-8.343-2.773-9.625-1.143c-1.208,1.533,3.797,6.522,2.399,8.37c-1.055,1.396-4.321-0.903-7.175,0.936
					c-1.422,0.916-1.318,1.939-3.399,5.286c-1.177,1.892-2.672,3.914-3.711,4.988c-5.054,5.221-15.739,4.994-17.103,2.086
					c-0.38-0.81,0.225-1.268,0.22-3.68c0,0-0.005-2.236-0.884-5.033c-1.257-3.995-5.721-7.713-9.945-12.63
					c-7.822-9.106-8.991-15.54-9.289-17.69c-0.106-0.766-0.149-1.335-0.18-1.745c-0.616-8.236,2.084-19.463,7.187-25.536
					c8.549-10.173,20.206-1.547,33.599-10.437c15.454-10.257,12.517-30.089,19.652-30.478
					C1359.753,1871.94,1371.514,1895.59,1366.819,1914.744z"/>
				
					<linearGradient id="SVGID_00000083790181672635061520000007848623089711847842_" gradientUnits="userSpaceOnUse" x1="-1675.0562" y1="1778.262" x2="-1514.9255" y2="1979.7268" gradientTransform="matrix(-0.9998 0.0235 0.0235 0.9998 -333.5531 171.7463)">
					<stop  offset="0" style="stop-color:#FFC444"/>
					<stop  offset="0.9964" style="stop-color:#F36F56"/>
				</linearGradient>
				<path style="fill:url(#SVGID_00000083790181672635061520000007848623089711847842_);" d="M1347.001,1955.738
					c-1.698-4.106-6.955-1.904-8.072,2.607c-1.117,4.511,2.125,10.265,6.587,10.399
					C1349.977,1968.878,1349.285,1961.264,1347.001,1955.738z"/>
			</g>
			
				<linearGradient id="SVGID_00000130638512655925139300000010661412931751473804_" gradientUnits="userSpaceOnUse" x1="1623.3752" y1="1870.0204" x2="1225.0736" y2="2330.2803">
				<stop  offset="0" style="stop-color:#FB6FBB"/>
				<stop  offset="1" style="stop-color:#FF9085"/>
			</linearGradient>
			<path style="fill:url(#SVGID_00000130638512655925139300000010661412931751473804_);" d="M1171.187,2030.821
				c20.011-14.53,51.849-17.257,115.594-21.748c47.844-3.371,92.321-1.543,118.962-0.38c57.849,2.524,79.122,7.04,115.825-2.174
				c25.886-6.496,55.495-13.929,64.148-36.179c9.508-24.444-8.825-60.224-46.113-87.928c7.504-6.094,15.007-12.192,22.511-18.286
				c13.677,3.008,57.273,14.409,87.884,55.078c26.598,35.335,39.849,86.86,22.756,130.796
				c-15.328,39.398-49.615,58.833-101.237,88.101c-57.834,32.79-70.163,22.845-94.414,47.635
				c-18.355,18.766-27.485,58.064-44.995,135.901c-9.864,43.854-16.726,80.684-33.062,136.929
				c-15.606,53.729-21.199,60.929-27.232,66.444c-28.891,26.419-59.816,6.936-145.306,19.176
				c-54.566,7.814-54.13,17.439-102.526,20.654c-44.704,2.969-91.684,6.085-119.49-25.08c-23.53-26.372-19.819-63.981-19.177-69.331
				c4.823-40.236,34.148-57.735,62.695-93.676c25.63-32.267,37.371-70.196,60.852-146.044
				C1149.096,2100.74,1130.511,2060.356,1171.187,2030.821z"/>
			
				<linearGradient id="SVGID_00000067941075684281124480000006014010598664004234_" gradientUnits="userSpaceOnUse" x1="1675.6483" y1="1915.256" x2="1277.3464" y2="2375.5161">
				<stop  offset="0" style="stop-color:#FF9085"/>
				<stop  offset="1" style="stop-color:#FB6FBB"/>
			</linearGradient>
			<path style="opacity:0.3;fill:url(#SVGID_00000067941075684281124480000006014010598664004234_);" d="M1678.229,1984.206
				c-4.681,17.564-12.409,35.085-24.654,51.041c-39.745,51.788-111.525,67.192-148.994,75.235
				c-68.012,14.595-109.379,3.181-122.441,28.031c-12.298,23.399,19.869,42.095,16.227,84.086
				c-4.389,50.613-53.613,52.26-84.086,116.539c-31.289,65.995-3.869,115.873-35.405,134.241
				c-21.328,12.421-36.396-8.921-84.086-13.277c-86.879-7.935-131.325,54.27-172.598,32.457
				c-10.411-5.501-22.709-17.477-29.99-46.598c-3.358,7.308-5.788,15.278-6.89,24.47c-0.641,5.35-4.352,42.959,19.177,69.331
				c27.807,31.165,74.787,28.049,119.49,25.08c48.396-3.215,47.96-12.84,102.526-20.654c85.49-12.24,116.415,7.243,145.306-19.176
				c6.033-5.515,11.625-12.715,27.232-66.444c16.336-56.245,23.197-93.076,33.062-136.929
				c17.51-77.837,26.64-117.135,44.995-135.901c24.251-24.79,36.579-14.845,94.414-47.635
				c51.622-29.268,85.909-48.703,101.237-88.101C1680.948,2028.937,1682.111,2006.139,1678.229,1984.206z"/>
		</g>
	</g>
</g>
</svg>
